<svg xmlns="http://www.w3.org/2000/svg" xmlns:xlink="http://www.w3.org/1999/xlink" width="500" zoomAndPan="magnify" viewBox="0 0 375 412.499988" height="550" preserveAspectRatio="xMidYMid meet" version="1.0"><defs><g/><clipPath id="618053a9f9"><rect x="0" width="336" y="0" height="412"/></clipPath></defs><g transform="matrix(1, 0, 0, 1, 23, 0)"><g clip-path="url(#618053a9f9)"><g fill="#ff3131" fill-opacity="1"><g transform="translate(21.950176, 229.516636)"><g><path d="M 152.078125 -156.4375 C 163.296875 -150.414062 172.851562 -141.953125 180.75 -131.046875 C 188.644531 -120.140625 194.722656 -108.140625 198.984375 -95.046875 C 203.242188 -81.960938 205.375 -68.769531 205.375 -55.46875 C 205.375 -30.957031 203.191406 -8.054688 198.828125 13.234375 C 194.460938 34.535156 187.5 53.238281 177.9375 69.34375 C 168.382812 85.445312 155.816406 98.015625 140.234375 107.046875 C 124.648438 116.085938 105.640625 120.609375 83.203125 120.609375 C 63.472656 120.609375 45.921875 117.226562 30.546875 110.46875 C 15.171875 103.71875 3.117188 94.421875 -5.609375 82.578125 C -14.335938 70.742188 -18.703125 57.445312 -18.703125 42.6875 C -18.703125 26.488281 -15.375 13.035156 -8.71875 2.328125 C -2.070312 -8.367188 6.960938 -16.78125 18.390625 -22.90625 C 29.816406 -29.03125 42.957031 -33.179688 57.8125 -35.359375 C 72.664062 -37.546875 88.453125 -38.222656 105.171875 -37.390625 C 121.898438 -36.566406 138.679688 -34.59375 155.515625 -31.46875 C 155.921875 -35.007812 156.226562 -38.546875 156.4375 -42.078125 C 156.644531 -45.609375 156.851562 -49.347656 157.0625 -53.296875 C 157.269531 -59.734375 156.851562 -66.273438 155.8125 -72.921875 C 154.78125 -79.566406 153.328125 -86.007812 151.453125 -92.25 C 146.054688 -84.769531 138.679688 -77.910156 129.328125 -71.671875 C 119.984375 -65.441406 108.972656 -60.507812 96.296875 -56.875 C 83.617188 -53.238281 69.59375 -51.523438 54.21875 -51.734375 C 39.46875 -51.734375 27.726562 -55.785156 19 -63.890625 C 10.28125 -71.992188 4.566406 -82.847656 1.859375 -96.453125 C -0.835938 -110.054688 -0.472656 -125.222656 2.953125 -141.953125 C 6.390625 -158.679688 12.882812 -175.5625 22.4375 -192.59375 L 85.078125 -192.59375 C 78.429688 -181.582031 72.457031 -170.46875 67.15625 -159.25 C 61.863281 -148.03125 58.070312 -137.742188 55.78125 -128.390625 C 53.5 -119.046875 53.445312 -111.515625 55.625 -105.796875 C 57.8125 -100.085938 62.953125 -97.234375 71.046875 -97.234375 C 83.515625 -97.234375 93.539062 -99.363281 101.125 -103.625 C 108.707031 -107.882812 113.484375 -113.648438 115.453125 -120.921875 C 117.429688 -128.191406 116.238281 -136.1875 111.875 -144.90625 L 113.125 -144.90625 Z M 212.53125 -15.265625 C 227.90625 -9.867188 243.695312 -2.753906 259.90625 6.078125 C 276.113281 14.910156 292.628906 25.453125 309.453125 37.703125 L 309.453125 123.09375 C 287.015625 102.738281 267.019531 85.648438 249.46875 71.828125 C 231.914062 58.015625 215.765625 46.742188 201.015625 38.015625 C 203.921875 29.703125 206.304688 21.128906 208.171875 12.296875 C 210.046875 3.472656 211.5 -5.710938 212.53125 -15.265625 Z M 83.515625 71.046875 C 98.890625 71.046875 111.5625 65.695312 121.53125 55 C 131.507812 44.300781 139.40625 30.644531 145.21875 14.03125 C 133.582031 10.90625 121.375 8.71875 108.59375 7.46875 C 95.820312 6.226562 83.878906 6.28125 72.765625 7.625 C 61.648438 8.976562 52.613281 12.148438 45.65625 17.140625 C 38.695312 22.128906 35.21875 29.296875 35.21875 38.640625 C 35.21875 47.992188 39.421875 55.734375 47.828125 61.859375 C 56.242188 67.984375 68.140625 71.046875 83.515625 71.046875 Z M 83.515625 71.046875 "/></g></g></g></g></g></svg>